<svg width="106" height="93" viewBox="0 0 106 93" fill="none" xmlns="http://www.w3.org/2000/svg">
<path d="M32.7679 3.96413C32.7889 10.7637 31.4917 17.6795 28.7302 24.3536C23.126 37.8947 12.552 47.8695 0 53.0384C13.5724 53.0384 27.1566 47.9043 37.5121 37.5409C47.8676 27.1777 53.0303 13.5829 52.9999 0.00014587C46.1149 -0.0159969 39.2346 1.30771 32.7679 3.96413Z" transform="translate(53 39.9616)" fill="#34BF49"/>
<path d="M24.2698 24.3536C21.5083 17.6797 20.2114 10.7637 20.2321 3.96413C13.7654 1.30748 6.88507 -0.0159969 0.000131612 0.000145895C-0.0300554 13.5829 5.13261 27.1777 15.4879 37.5409C25.8434 47.9043 39.4276 53.0384 52.9977 53.0359C40.4457 47.8672 29.874 37.8947 24.2698 24.3536Z" transform="translate(0 39.9616)" fill="#34BF49" fill-opacity="0.5"/>
<path d="M28.7302 40.6139C31.4917 33.94 32.7886 27.024 32.7679 20.2244C32.7469 13.2318 31.3314 6.35772 28.6839 0C22.3172 2.62159 16.4664 6.47856 11.5084 11.4125C14.128 17.684 15.574 24.5696 15.574 31.7948C15.574 46.4525 9.6186 59.7166 0 69.2985C12.552 64.1298 23.126 54.1549 28.7302 40.6139Z" transform="translate(53 23.7013)" fill="#34BF49" fill-opacity="0.75"/>
<path d="M21.2597 11.4125C16.3017 6.47856 10.4509 2.62159 4.08425 0C1.43678 6.35749 0.0209893 13.2316 0.000250132 20.2244C-0.0207195 27.024 1.2764 33.9398 4.03794 40.6139C9.64212 54.1549 20.2138 64.1275 32.7658 69.2964C23.1495 59.7147 17.1942 46.4504 17.1942 31.7951C17.1942 24.5696 18.6402 17.684 21.2597 11.4125Z" transform="translate(20.2319 23.7015)" fill="#34BF49" fill-opacity="0.25"/>
<path d="M4.6087 9.22445C7.15402 9.22445 9.21741 7.15949 9.21741 4.61223C9.21741 2.06496 7.15402 0 4.6087 0C2.06339 0 0 2.06496 0 4.61223C0 7.15949 2.06339 9.22445 4.6087 9.22445Z" transform="translate(48.3913)" fill="#67CF76"/>
<path d="M4.60778 9.22261C7.15259 9.22261 9.21556 7.15806 9.21556 4.6113C9.21556 2.06455 7.15259 0 4.60778 0C2.06297 0 0 2.06455 0 4.6113C0 7.15806 2.06297 9.22261 4.60778 9.22261Z" transform="translate(32.4095 6.22881)" fill="#CBEED1"/>
<path d="M4.60778 9.22261C7.15259 9.22261 9.21557 7.15806 9.21557 4.6113C9.21557 2.06455 7.15259 0 4.60778 0C2.06297 0 0 2.06455 0 4.6113C0 7.15806 2.06297 9.22261 4.60778 9.22261Z" transform="translate(64.375 6.22881)" fill="#34BF49"/>
<path d="M0 75.0086C9.61837 65.4267 15.5728 52.1643 15.5728 37.5066C15.5728 30.2816 14.128 23.3955 11.5079 17.1229C8.81415 10.6658 4.87601 4.85898 0 0V75.0086Z" transform="translate(53 17.9904)" fill="#34BF49"/>
<path d="M4.06488 17.1229C1.44483 23.3955 0 30.2816 0 37.5066C0 52.162 5.95445 65.4244 15.5728 75.0086V0C10.6968 4.85898 6.75866 10.6658 4.06488 17.1229Z" transform="translate(37.4272 17.9904)" fill="#34BF49" fill-opacity="0.75"/>
</svg>
