<svg width="16" height="15" viewBox="0 0 16 15" fill="none" xmlns="http://www.w3.org/2000/svg">
<path d="M4.9461 0.598359C4.94926 1.62471 4.75347 2.6686 4.33663 3.67602C3.49072 5.71995 1.89465 7.22559 0 8.0058C2.04866 8.0058 4.0991 7.23084 5.6622 5.66655C7.2253 4.10229 8.00457 2.05025 7.99998 2.20181e-05C6.96074 -0.00241463 5.9222 0.197391 4.9461 0.598359Z" transform="translate(8 6.03192)" fill="#515151"/>
<path d="M3.66337 3.67602C3.24653 2.66864 3.05077 1.62471 3.0539 0.598359C2.0778 0.197356 1.03926 -0.00241463 1.98659e-05 2.20219e-05C-0.00453666 2.05025 0.774734 4.10229 2.3378 5.66655C3.9009 7.23084 5.95134 8.0058 7.99965 8.00542C6.10501 7.22524 4.50928 5.71995 3.66337 3.67602Z" transform="translate(0 6.03192)" fill="#515151"/>
<path d="M4.33663 6.1304C4.75347 5.12302 4.94923 4.07909 4.9461 3.05274C4.94293 1.99725 4.72926 0.959656 4.32964 0C3.36863 0.395712 2.4855 0.977897 1.73712 1.72264C2.13253 2.66928 2.35079 3.70861 2.35079 4.79922C2.35079 7.0117 1.45186 9.01382 0 10.4601C1.89465 9.67997 3.49072 8.17433 4.33663 6.1304Z" transform="translate(8 3.57758)" fill="#515151"/>
<path d="M3.20902 1.72264C2.46063 0.977896 1.5775 0.395712 0.616491 0C0.216873 0.959622 0.0031682 1.99722 3.77558e-05 3.05274C-0.00312747 4.07909 0.192664 5.12298 0.6095 6.1304C1.45541 8.17433 3.05114 9.67962 4.94579 10.4598C3.49427 9.01354 2.59535 7.01138 2.59535 4.79926C2.59535 3.70861 2.81361 2.66928 3.20902 1.72264Z" transform="translate(3.05396 3.57758)" fill="#515151"/>
<path d="M0.695653 1.39237C1.07985 1.39237 1.39131 1.08068 1.39131 0.696185C1.39131 0.311693 1.07985 0 0.695653 0C0.311455 0 0 0.311693 0 0.696185C0 1.08068 0.311455 1.39237 0.695653 1.39237Z" transform="translate(7.3042)" fill="#515151"/>
<path d="M0.695514 1.39209C1.07964 1.39209 1.39103 1.08046 1.39103 0.696046C1.39103 0.31163 1.07964 0 0.695514 0C0.311392 0 0 0.31163 0 0.696046C0 1.08046 0.311392 1.39209 0.695514 1.39209Z" transform="translate(4.89209 0.940186)" fill="#515151"/>
<path d="M0.695514 1.39209C1.07964 1.39209 1.39103 1.08046 1.39103 0.696046C1.39103 0.31163 1.07964 0 0.695514 0C0.311392 0 0 0.31163 0 0.696046C0 1.08046 0.311392 1.39209 0.695514 1.39209Z" transform="translate(9.71704 0.940186)" fill="#515151"/>
<path d="M0 11.3221C1.45183 9.87573 2.35061 7.87385 2.35061 5.66138C2.35061 4.5708 2.13253 3.5314 1.73705 2.58459C1.33044 1.60993 0.736001 0.733431 0 0V11.3221Z" transform="translate(8 2.71552)" fill="#515151"/>
<path d="M0.613566 2.58459C0.218087 3.5314 0 4.5708 0 5.66138C0 7.8735 0.898784 9.87538 2.35061 11.3221V0C1.61461 0.733431 1.02018 1.60993 0.613566 2.58459Z" transform="translate(5.64941 2.71552)" fill="#515151"/>
</svg>
